<?xml version="1.0" standalone="no"?>
<!DOCTYPE svg PUBLIC "-//W3C//DTD SVG 20010904//EN"
 "http://www.w3.org/TR/2001/REC-SVG-20010904/DTD/svg10.dtd">
<svg version="1.0" xmlns="http://www.w3.org/2000/svg"
 width="398.000000pt" height="398.000000pt" viewBox="0 0 398.000000 398.000000"
 preserveAspectRatio="xMidYMid meet">

<g transform="translate(0.000000,398.000000) scale(0.100000,-0.100000)"
fill="#000000" stroke="none">
<path d="M0 1990 l0 -1990 1990 0 1990 0 0 1990 0 1990 -1990 0 -1990 0 0
-1990z m2280 1840 c98 -16 286 -66 363 -94 279 -106 562 -308 752 -536 239
-289 373 -606 421 -997 43 -353 -49 -765 -245 -1101 -107 -183 -337 -442 -524
-589 -194 -153 -410 -244 -697 -295 -98 -17 -475 -17 -595 0 -603 86 -1117
457 -1391 1005 -65 128 -113 267 -151 432 -25 113 -27 135 -27 365 -1 279 11
361 85 585 110 332 314 625 589 844 282 226 579 347 970 395 61 7 382 -2 450
-14z"/>
<path d="M1710 3790 c-135 -23 -213 -43 -330 -87 -606 -226 -1030 -741 -1146
-1393 -25 -142 -23 -438 4 -590 129 -710 672 -1282 1364 -1434 193 -42 217
-41 97 2 -264 96 -473 245 -644 460 -95 118 -186 286 -235 432 -17 52 -45 118
-60 147 -110 198 -190 493 -190 704 0 132 43 355 95 494 153 407 471 714 879
850 358 120 723 96 1081 -71 259 -120 509 -368 640 -633 38 -77 95 -218 95
-236 0 -6 28 -67 63 -135 71 -141 105 -238 138 -390 19 -87 23 -135 23 -280 0
-234 -30 -378 -121 -583 -19 -43 -33 -81 -30 -83 8 -8 138 206 183 301 131
278 190 599 165 894 -12 144 -47 317 -88 441 -13 41 -58 143 -98 225 -143 288
-347 519 -615 695 -218 143 -436 228 -695 270 -158 26 -423 26 -575 0z"/>
<path d="M1770 3405 c-291 -50 -531 -173 -746 -381 -253 -246 -395 -557 -420
-920 -14 -210 43 -498 132 -662 l25 -47 -6 45 c-17 132 -17 258 0 360 33 203
69 319 151 483 64 126 135 225 246 338 210 216 465 352 768 409 99 19 138 21
285 17 185 -6 261 -19 422 -72 244 -81 426 -204 622 -420 73 -80 74 -71 5 75
-135 284 -360 508 -662 659 -110 55 -232 92 -396 121 -80 14 -333 11 -426 -5z"/>
<path d="M2050 3020 c-330 -31 -598 -153 -849 -386 -189 -176 -343 -451 -395
-707 -39 -190 -42 -354 -10 -536 17 -97 28 -119 92 -204 115 -150 253 -272
416 -366 119 -68 218 -107 356 -144 100 -26 137 -30 289 -35 223 -6 362 17
559 90 238 89 496 297 643 518 153 230 226 460 236 736 6 158 -11 306 -42 381
-65 154 -333 401 -562 517 -208 104 -495 158 -733 136z m708 -777 c5 -10 12
-76 16 -148 4 -81 12 -137 20 -150 7 -11 17 -36 21 -55 9 -42 49 -101 104
-155 46 -44 52 -65 18 -65 -29 0 -84 55 -140 141 l-42 64 -80 -3 c-44 -2 -86
-9 -94 -15 -8 -7 -27 -41 -43 -77 -32 -71 -54 -100 -75 -100 -23 0 -15 21 46
114 74 115 111 189 168 335 25 64 47 119 50 124 7 12 22 8 31 -10z m-558 -8
c30 -15 50 -43 50 -67 0 -7 -7 -3 -15 9 -19 28 -78 45 -110 33 -28 -11 -41
-60 -31 -114 10 -54 50 -81 150 -99 105 -19 141 -42 157 -100 15 -55 7 -132
-18 -165 -27 -37 -80 -62 -131 -62 -66 0 -182 67 -182 105 0 23 17 18 79 -20
72 -44 117 -53 163 -31 44 21 61 53 60 112 -1 87 -32 114 -152 134 -132 22
-160 51 -160 165 0 57 3 69 25 90 28 29 71 33 115 10z m-645 -21 c63 -7 97
-40 102 -100 4 -40 0 -55 -19 -83 -42 -63 -222 -136 -270 -110 -17 9 -18 2
-18 -100 0 -99 -2 -111 -19 -121 -11 -5 -23 -10 -26 -10 -3 0 -5 109 -3 242 2
182 6 242 16 246 6 2 12 10 12 18 0 29 81 35 225 18z m452 -90 c3 -8 -30 -13
-99 -17 -57 -3 -120 -10 -140 -17 l-38 -11 0 -74 0 -75 105 0 c113 0 141 -15
48 -25 -32 -4 -76 -10 -98 -13 l-40 -8 -3 -68 c-2 -50 1 -75 13 -92 16 -25 16
-25 143 -18 124 6 127 6 109 -12 -15 -16 -36 -20 -128 -22 -135 -5 -154 0
-176 41 -15 27 -18 56 -16 201 1 129 5 172 15 183 34 34 295 57 305 27z"/>
<path d="M2684 2068 c-14 -40 -33 -88 -40 -107 -8 -18 -14 -35 -14 -37 0 -5
106 -5 111 0 7 7 -14 216 -22 216 -4 0 -20 -33 -35 -72z"/>
<path d="M1363 2184 c-9 -4 -13 -39 -13 -125 l0 -119 25 0 c34 0 130 37 188
73 47 29 48 31 51 103 2 48 -41 69 -147 71 -51 1 -98 0 -104 -3z"/>
<path d="M3403 2245 c15 -71 19 -275 8 -365 -43 -350 -180 -630 -427 -872
-167 -164 -361 -277 -587 -342 -417 -121 -837 -54 -1207 193 -80 53 -256 216
-314 291 -24 31 -26 32 -21 10 12 -45 103 -223 153 -300 171 -258 432 -459
712 -548 165 -53 244 -66 376 -65 294 4 621 113 908 303 281 187 449 442 531
810 10 43 19 141 22 231 6 173 -7 276 -53 436 -37 128 -118 303 -101 218z"/>
</g>
</svg>
