<?xml version="1.0" standalone="no"?>
<!DOCTYPE svg PUBLIC "-//W3C//DTD SVG 20010904//EN"
 "http://www.w3.org/TR/2001/REC-SVG-20010904/DTD/svg10.dtd">
<svg version="1.0" xmlns="http://www.w3.org/2000/svg"
 width="398.000000pt" height="398.000000pt" viewBox="0 0 398.000000 398.000000"
 preserveAspectRatio="xMidYMid meet">

<g transform="translate(0.000000,398.000000) scale(0.100000,-0.100000)"
fill="#000000" stroke="none">
<path d="M1790 3840 c-540 -66 -1020 -364 -1320 -820 -118 -180 -212 -409
-262 -640 -20 -93 -22 -133 -22 -355 0 -236 1 -256 27 -370 77 -336 217 -607
440 -855 193 -215 453 -389 727 -488 223 -81 383 -106 675 -106 252 -1 374 15
540 69 255 84 421 190 651 420 366 365 547 763 580 1272 8 122 -15 325 -56
493 -140 571 -547 1040 -1099 1264 -85 34 -256 82 -366 101 -107 20 -407 28
-515 15z m495 -50 c495 -81 920 -354 1201 -772 66 -98 172 -312 207 -418 40
-119 75 -294 88 -434 29 -310 -45 -677 -193 -956 -51 -96 -153 -260 -163 -260
-6 0 9 39 36 92 66 130 117 344 126 530 12 251 -42 489 -164 726 -25 48 -61
132 -80 186 -95 272 -265 510 -483 676 -313 238 -721 338 -1101 269 -424 -76
-773 -316 -991 -684 -125 -210 -207 -531 -195 -765 11 -203 67 -414 162 -604
30 -60 69 -150 86 -200 82 -239 216 -442 400 -605 147 -130 289 -214 478 -283
120 -43 96 -44 -97 -2 -297 66 -578 212 -802 418 -297 274 -491 625 -562 1016
-27 152 -29 438 -4 585 130 771 712 1357 1475 1485 153 26 419 26 576 0z m-70
-385 c454 -73 845 -366 1040 -778 67 -141 67 -152 -1 -77 -188 210 -387 345
-624 424 -162 53 -240 67 -413 73 -171 6 -247 -2 -407 -43 -479 -120 -868
-496 -1006 -972 -43 -150 -67 -323 -60 -442 3 -58 8 -125 11 -150 l6 -45 -29
55 c-40 75 -76 185 -103 310 -18 84 -22 137 -22 270 0 133 4 186 22 270 65
307 217 572 440 767 271 237 564 350 916 352 80 1 179 -5 230 -14z m160 -396
c291 -43 558 -178 777 -392 94 -92 185 -218 202 -280 28 -99 39 -216 33 -361
-15 -371 -160 -693 -428 -952 -201 -193 -452 -321 -727 -369 -131 -23 -369
-20 -495 6 -352 71 -635 247 -852 529 -59 78 -72 105 -89 201 -32 182 -29 346
10 536 31 155 106 330 199 472 189 286 497 505 815 581 198 48 367 56 555 29z
m1134 -1004 c44 -159 54 -253 48 -423 -10 -268 -84 -499 -232 -728 -58 -89
-200 -223 -322 -304 -289 -192 -618 -301 -913 -303 -133 -1 -216 14 -385 70
-267 87 -530 292 -697 543 -50 75 -141 253 -153 300 -6 22 -3 21 21 -10 58
-75 235 -240 315 -293 274 -182 622 -277 909 -247 356 36 638 162 874 390 126
121 202 221 276 363 113 214 161 401 164 632 0 77 -2 172 -6 210 l-7 70 39
-80 c21 -44 52 -129 69 -190z"/>
<path d="M2727 2253 c-3 -5 -25 -60 -50 -124 -57 -146 -94 -220 -168 -335 -61
-93 -69 -114 -46 -114 21 0 44 30 72 95 41 92 45 95 142 95 l83 0 36 -57 c50
-79 113 -143 141 -143 32 0 29 21 -8 56 -57 53 -109 125 -109 151 0 14 -9 40
-19 57 -15 24 -21 60 -26 161 -4 72 -12 138 -17 148 -9 18 -24 22 -31 10z m8
-224 c6 -55 9 -102 6 -104 -2 -3 -29 -5 -59 -5 -47 0 -53 2 -48 18 48 127 80
202 85 197 3 -4 11 -51 16 -106z"/>
<path d="M2090 2232 c-21 -17 -25 -30 -28 -88 -7 -120 22 -152 156 -174 123
-19 156 -51 154 -146 0 -58 -23 -90 -72 -105 -49 -15 -97 -3 -161 41 -24 16
-50 30 -56 30 -45 0 38 -89 102 -110 49 -16 130 -8 163 17 80 58 83 217 5 268
-14 9 -63 24 -111 32 -104 20 -140 46 -149 110 -8 57 3 92 31 103 33 12 91 -5
111 -33 l16 -22 -3 24 c-7 55 -112 90 -158 53z"/>
<path d="M1363 2218 c-18 -5 -33 -15 -33 -22 0 -8 -6 -16 -12 -18 -10 -4 -14
-64 -16 -246 -2 -133 0 -242 3 -242 3 0 15 5 26 10 17 10 19 22 19 114 l0 103
48 1 c87 2 209 59 243 115 39 65 20 139 -43 166 -49 21 -187 32 -235 19z m207
-46 c33 -16 35 -20 38 -73 l3 -56 -50 -32 c-55 -36 -148 -71 -186 -71 l-25 0
0 119 c0 86 3 121 13 124 6 3 48 6 92 6 57 1 90 -4 115 -17z"/>
<path d="M1781 2124 c-36 -7 -71 -20 -79 -28 -12 -11 -15 -51 -16 -183 -1
-141 2 -173 16 -199 10 -17 25 -34 33 -38 9 -3 68 -6 130 -6 100 0 116 2 136
21 l24 20 -127 -6 -127 -6 -16 24 c-12 18 -15 43 -13 93 l3 69 95 13 c135 19
136 32 2 32 l-112 0 0 75 c0 69 2 75 23 80 92 21 120 25 185 25 68 0 92 10 56
24 -27 10 -146 5 -213 -10z"/>
</g>
</svg>
